<?xml version="1.0" encoding="utf-8" standalone="no"?>
<!DOCTYPE svg PUBLIC "-//W3C//DTD SVG 1.1//EN"
  "http://www.w3.org/Graphics/SVG/1.1/DTD/svg11.dtd">
<!-- Created with matplotlib (https://matplotlib.org/) -->
<svg height="288pt" version="1.1" viewBox="0 0 432 288" width="432pt" xmlns="http://www.w3.org/2000/svg" xmlns:xlink="http://www.w3.org/1999/xlink">
 <metadata>
  <rdf:RDF xmlns:cc="http://creativecommons.org/ns#" xmlns:dc="http://purl.org/dc/elements/1.1/" xmlns:rdf="http://www.w3.org/1999/02/22-rdf-syntax-ns#">
   <cc:Work>
    <dc:type rdf:resource="http://purl.org/dc/dcmitype/StillImage"/>
    <dc:date>2021-06-04T12:58:53.099491</dc:date>
    <dc:format>image/svg+xml</dc:format>
    <dc:creator>
     <cc:Agent>
      <dc:title>Matplotlib v3.3.4, https://matplotlib.org/</dc:title>
     </cc:Agent>
    </dc:creator>
   </cc:Work>
  </rdf:RDF>
 </metadata>
 <defs>
  <style type="text/css">*{stroke-linecap:butt;stroke-linejoin:round;}</style>
 </defs>
 <g id="figure_1">
  <g id="patch_1">
   <path d="M 0 288 
L 432 288 
L 432 0 
L 0 0 
z
" style="fill:none;"/>
  </g>
  <g id="axes_1">
   <g id="LineCollection_1">
    <path clip-path="url(#pa9605150ca)" d="M 118.373647 192.973978 
L 115.318431 192.341339 
L 111.94048 191.437205 
L 109.208 190.548699 
L 106.152784 189.371048 
L 103.097569 187.989801 
L 100.042353 186.388013 
L 96.987137 184.544154 
L 93.670334 182.235472 
L 90.876706 180.007392 
L 87.82149 177.222751 
L 84.766275 173.995896 
L 82.6949 171.500118 
L 80.183451 168.040217 
L 78.487628 165.36563 
L 76.783191 162.298386 
L 75.308454 159.231142 
L 74.04504 156.163898 
L 72.979646 153.096654 
L 72.099804 150.029409 
L 71.397437 146.962165 
L 70.866062 143.894921 
L 70.501107 140.827677 
L 70.299309 137.760433 
L 70.259033 134.693189 
L 70.379946 131.625945 
L 70.663038 128.558701 
L 71.110649 125.491457 
L 71.726936 122.424213 
L 72.545412 119.261171 
L 73.488775 116.289724 
L 74.651728 113.22248 
L 76.018476 110.155236 
L 77.605732 107.087992 
L 79.434757 104.020748 
L 81.711059 100.711892 
L 83.939545 97.88626 
L 86.705625 94.819016 
L 89.910426 91.751772 
L 92.404314 89.659512 
L 95.819769 87.150906 
L 98.514745 85.421328 
L 101.569961 83.702268 
L 104.625176 82.213036 
L 107.680392 80.935022 
L 110.735608 79.854607 
L 113.790824 78.959459 
L 116.846039 78.241073 
L 119.901255 77.693052 
L 122.956471 77.310535 
L 126.011686 77.090197 
L 129.066902 77.030248 
L 132.122118 77.130197 
L 135.177333 77.390863 
L 138.986526 77.949173 
L 141.287765 78.404509 
L 145.426908 79.482795 
L 147.398196 80.107136 
L 150.453412 81.235676 
L 153.508627 82.564203 
L 156.563843 84.108826 
L 159.619059 85.890171 
L 162.674275 87.93409 
L 165.72949 90.273119 
L 169.123553 93.285394 
L 172.09757 96.352638 
L 174.895137 99.702743 
L 176.922009 102.487126 
L 178.881502 105.55437 
L 180.586674 108.621614 
L 182.061318 111.688858 
L 183.324337 114.756102 
L 184.390428 117.823346 
L 185.270244 120.890591 
L 185.972565 123.957835 
L 186.503873 127.025079 
L 186.868907 130.092323 
L 187.070697 133.159567 
L 187.110968 136.226811 
L 186.990068 139.294055 
L 186.706956 142.361299 
L 186.259241 145.428543 
L 185.588392 148.722935 
L 184.852872 151.563031 
L 183.88152 154.630276 
L 182.533176 158.13488 
L 181.005569 161.465237 
L 179.477961 164.336741 
L 177.936895 166.899252 
L 175.836777 169.966496 
L 173.367529 173.110878 
L 170.312314 176.461657 
L 167.257098 179.349291 
L 163.697919 182.235472 
L 161.146667 184.043093 
L 158.091451 185.950569 
L 155.036235 187.610499 
L 151.98102 189.045309 
L 148.925804 190.272778 
L 145.426908 191.437205 
L 142.815373 192.156385 
L 138.986526 192.970827 
L 136.704941 193.337926 
L 133.649725 193.679662 
L 130.59451 193.859785 
L 127.539294 193.879765 
L 124.484078 193.739765 
L 121.428863 193.438639 
L 118.373647 192.973978 
L 118.373647 192.973978 
" style="fill:none;stroke:#118ab2;stroke-width:8;"/>
    <path clip-path="url(#pa9605150ca)" d="M 313.907451 193.105652 
L 310.852235 192.515491 
L 306.713092 191.437205 
L 304.741804 190.812864 
L 301.686588 189.684324 
L 298.631373 188.355797 
L 295.576157 186.811174 
L 292.520941 185.029829 
L 289.465725 182.98591 
L 286.41051 180.646881 
L 283.016447 177.634606 
L 280.04243 174.567362 
L 277.244863 171.217257 
L 275.217991 168.432874 
L 273.258498 165.36563 
L 271.553326 162.298386 
L 270.078682 159.231142 
L 268.815663 156.163898 
L 267.749572 153.096654 
L 266.869756 150.029409 
L 266.167435 146.962165 
L 265.636127 143.894921 
L 265.271093 140.827677 
L 265.069303 137.760433 
L 265.029032 134.693189 
L 265.149932 131.625945 
L 265.433044 128.558701 
L 265.880759 125.491457 
L 266.551608 122.197065 
L 267.287128 119.356969 
L 268.25848 116.289724 
L 269.606824 112.78512 
L 271.134431 109.454763 
L 272.662039 106.583259 
L 274.203105 104.020748 
L 276.303223 100.953504 
L 278.772471 97.809122 
L 281.827686 94.458343 
L 284.882902 91.570709 
L 288.442081 88.684528 
L 290.993333 86.876907 
L 294.048549 84.969431 
L 297.103765 83.309501 
L 300.15898 81.874691 
L 303.214196 80.647222 
L 306.713092 79.482795 
L 309.324627 78.763615 
L 313.153474 77.949173 
L 315.435059 77.582074 
L 318.490275 77.240338 
L 321.54549 77.060215 
L 324.600706 77.040235 
L 327.655922 77.180235 
L 330.711137 77.481361 
L 333.782761 77.949173 
L 336.821569 78.578661 
L 340.19952 79.482795 
L 342.932 80.371301 
L 345.987216 81.548952 
L 349.042431 82.930199 
L 352.097647 84.531987 
L 355.152863 86.375846 
L 358.469666 88.684528 
L 361.263294 90.912608 
L 364.31851 93.697249 
L 367.373725 96.924104 
L 369.4451 99.419882 
L 371.956549 102.879783 
L 373.652372 105.55437 
L 375.356809 108.621614 
L 376.831546 111.688858 
L 378.09496 114.756102 
L 379.160354 117.823346 
L 380.040196 120.890591 
L 380.742563 123.957835 
L 381.273938 127.025079 
L 381.638893 130.092323 
L 381.840691 133.159567 
L 381.880967 136.226811 
L 381.760054 139.294055 
L 381.476962 142.361299 
L 381.029351 145.428543 
L 380.413064 148.495787 
L 379.594588 151.658829 
L 378.651225 154.630276 
L 377.488272 157.69752 
L 376.121524 160.764764 
L 374.534268 163.832008 
L 372.705243 166.899252 
L 370.428941 170.208108 
L 368.200455 173.03374 
L 365.434375 176.100984 
L 362.229574 179.168228 
L 359.735686 181.260488 
L 356.320231 183.769094 
L 353.625255 185.498672 
L 350.570039 187.217732 
L 347.514824 188.706964 
L 344.459608 189.984978 
L 341.404392 191.065393 
L 338.349176 191.960541 
L 335.293961 192.678927 
L 332.238745 193.226948 
L 329.183529 193.609465 
L 326.128314 193.829803 
L 323.073098 193.889752 
L 320.017882 193.789803 
L 316.962667 193.529137 
L 313.907451 193.105652 
L 313.907451 193.105652 
" style="fill:none;stroke:#118ab2;stroke-width:8;"/>
   </g>
  </g>
 </g>
 <defs>
  <clipPath id="pa9605150ca">
   <rect height="194.77" width="389.54" x="31.3" y="38.075"/>
  </clipPath>
 </defs>
</svg>
