<?xml version="1.0" encoding="utf-8" standalone="no"?>
<!DOCTYPE svg PUBLIC "-//W3C//DTD SVG 1.1//EN"
  "http://www.w3.org/Graphics/SVG/1.1/DTD/svg11.dtd">
<!-- Created with matplotlib (https://matplotlib.org/) -->
<svg height="288pt" version="1.1" viewBox="0 0 432 288" width="432pt" xmlns="http://www.w3.org/2000/svg" xmlns:xlink="http://www.w3.org/1999/xlink">
 <metadata>
  <rdf:RDF xmlns:cc="http://creativecommons.org/ns#" xmlns:dc="http://purl.org/dc/elements/1.1/" xmlns:rdf="http://www.w3.org/1999/02/22-rdf-syntax-ns#">
   <cc:Work>
    <dc:type rdf:resource="http://purl.org/dc/dcmitype/StillImage"/>
    <dc:date>2021-06-04T12:58:53.264881</dc:date>
    <dc:format>image/svg+xml</dc:format>
    <dc:creator>
     <cc:Agent>
      <dc:title>Matplotlib v3.3.4, https://matplotlib.org/</dc:title>
     </cc:Agent>
    </dc:creator>
   </cc:Work>
  </rdf:RDF>
 </metadata>
 <defs>
  <style type="text/css">*{stroke-linecap:butt;stroke-linejoin:round;}</style>
 </defs>
 <g id="figure_1">
  <g id="patch_1">
   <path d="M 0 288 
L 432 288 
L 432 0 
L 0 0 
z
" style="fill:none;"/>
  </g>
  <g id="axes_1">
   <g id="LineCollection_1">
    <path clip-path="url(#pc6613a275c)" d="M 96.987137 183.993545 
L 95.459529 183.735178 
L 93.931922 183.347658 
L 92.404314 182.823905 
L 90.876706 182.153852 
L 88.418289 180.70185 
L 87.82149 180.280134 
L 86.293882 179.016205 
L 84.766275 177.443288 
L 83.238667 175.422968 
L 82.695439 174.567362 
L 81.711059 172.651665 
L 81.228947 171.500118 
L 80.726008 169.966496 
L 80.183451 167.311819 
L 80.119892 166.899252 
L 80.004738 165.36563 
L 80.010784 163.832008 
L 80.183451 162.018442 
L 80.389457 160.764764 
L 80.770074 159.231142 
L 81.711059 156.704288 
L 81.952543 156.163898 
L 83.238667 153.927989 
L 84.766275 151.911236 
L 86.570953 150.029409 
L 100.373551 136.226811 
L 100.373551 134.693189 
L 84.766275 119.008764 
L 83.238667 116.992011 
L 82.786546 116.289724 
L 81.711059 114.215712 
L 81.287006 113.22248 
L 80.770074 111.688858 
L 80.183451 108.901558 
L 80.138128 108.621614 
L 80.010784 107.087992 
L 80.004738 105.55437 
L 80.183451 103.608181 
L 80.358605 102.487126 
L 80.726008 100.953504 
L 81.711059 98.268335 
L 81.878338 97.88626 
L 83.238667 95.497032 
L 83.701249 94.819016 
L 84.933001 93.285394 
L 86.462499 91.751772 
L 88.418289 90.21815 
L 89.349098 89.607773 
L 91.05523 88.684528 
L 92.404314 88.096095 
L 93.931922 87.572342 
L 95.657348 87.150906 
L 96.987137 86.926455 
L 98.514745 86.79094 
L 100.042353 86.775935 
L 101.569961 86.881189 
L 103.284032 87.150906 
L 104.625176 87.463006 
L 106.152784 87.951926 
L 107.883056 88.684528 
L 109.208 89.381279 
L 110.735608 90.358682 
L 112.47585 91.751772 
L 117.122275 96.352638 
L 127.539294 106.769657 
L 129.066902 107.53346 
L 144.900105 91.751772 
L 146.848367 90.21815 
L 147.398196 89.845313 
L 149.501022 88.684528 
L 150.453412 88.249318 
L 151.98102 87.690186 
L 154.126148 87.150906 
L 155.036235 86.979383 
L 156.563843 86.813467 
L 158.091451 86.768437 
L 159.619059 86.843539 
L 161.679456 87.150906 
L 162.674275 87.362052 
L 164.201882 87.816669 
L 166.300504 88.684528 
L 167.257098 89.165639 
L 168.96183 90.21815 
L 170.900944 91.751772 
L 172.432282 93.285394 
L 173.670371 94.819016 
L 174.895137 96.747844 
L 175.490059 97.88626 
L 176.422745 100.265014 
L 176.644528 100.953504 
L 177.01111 102.487126 
L 177.24994 104.020748 
L 177.365251 105.55437 
L 177.3592 107.087992 
L 177.23167 108.621614 
L 176.980287 110.155236 
L 176.422745 112.227649 
L 176.083109 113.22248 
L 174.895137 115.737561 
L 174.584087 116.289724 
L 173.367529 118.073626 
L 171.839922 119.841068 
L 156.996449 134.693189 
L 156.996449 136.226811 
L 172.294954 151.563031 
L 173.559279 153.096654 
L 174.895137 155.182439 
L 175.416437 156.163898 
L 176.422745 158.692351 
L 176.600627 159.231142 
L 176.980287 160.764764 
L 177.23167 162.298386 
L 177.3592 163.832008 
L 177.365251 165.36563 
L 177.24994 166.899252 
L 177.01111 168.432874 
L 176.422745 170.654986 
L 176.141469 171.500118 
L 174.895137 174.172156 
L 174.676284 174.567362 
L 173.367529 176.501093 
L 171.839922 178.26801 
L 170.312314 179.678576 
L 168.784706 180.825912 
L 166.300504 182.235472 
L 165.72949 182.508259 
L 164.201882 183.103331 
L 161.679456 183.769094 
L 161.146667 183.879974 
L 159.619059 184.076461 
L 158.091451 184.151563 
L 156.563843 184.106533 
L 154.126148 183.769094 
L 153.508627 183.650638 
L 151.98102 183.229814 
L 149.501022 182.235472 
L 148.925804 181.95934 
L 146.848367 180.70185 
L 144.900105 179.168228 
L 142.815373 177.13501 
L 129.066902 163.38654 
L 127.539294 164.150343 
L 112.263216 179.357772 
L 110.529284 180.70185 
L 109.208 181.538721 
L 107.680392 182.33649 
L 106.152784 182.968074 
L 104.625176 183.456994 
L 103.097569 183.811555 
L 101.569961 184.038811 
L 100.042353 184.144065 
L 98.514745 184.12906 
L 96.987137 183.993545 
L 96.987137 183.993545 
" style="fill:none;stroke:#ffd166;stroke-width:8;"/>
    <path clip-path="url(#pc6613a275c)" d="M 290.993333 183.879974 
L 289.465725 183.557948 
L 287.938118 183.103331 
L 285.839496 182.235472 
L 284.882902 181.754361 
L 283.17817 180.70185 
L 281.239056 179.168228 
L 279.707718 177.634606 
L 278.469629 176.100984 
L 277.244863 174.172156 
L 276.649941 173.03374 
L 275.717255 170.654986 
L 275.495472 169.966496 
L 275.12889 168.432874 
L 274.89006 166.899252 
L 274.774749 165.36563 
L 274.7808 163.832008 
L 274.90833 162.298386 
L 275.159713 160.764764 
L 275.717255 158.692351 
L 276.056891 157.69752 
L 277.244863 155.182439 
L 277.555913 154.630276 
L 278.772471 152.846374 
L 280.300078 151.078932 
L 295.143551 136.226811 
L 295.143551 134.693189 
L 279.845046 119.356969 
L 278.580721 117.823346 
L 277.244863 115.737561 
L 276.723563 114.756102 
L 275.717255 112.227649 
L 275.539373 111.688858 
L 275.159713 110.155236 
L 274.90833 108.621614 
L 274.7808 107.087992 
L 274.774749 105.55437 
L 274.89006 104.020748 
L 275.12889 102.487126 
L 275.717255 100.265014 
L 275.998531 99.419882 
L 277.244863 96.747844 
L 277.463716 96.352638 
L 278.772471 94.418907 
L 280.300078 92.65199 
L 281.827686 91.241424 
L 283.355294 90.094088 
L 285.839496 88.684528 
L 286.41051 88.411741 
L 287.938118 87.816669 
L 290.460544 87.150906 
L 290.993333 87.040026 
L 292.520941 86.843539 
L 294.048549 86.768437 
L 295.576157 86.813467 
L 298.013852 87.150906 
L 298.631373 87.269362 
L 300.15898 87.690186 
L 302.638978 88.684528 
L 303.214196 88.96066 
L 305.291633 90.21815 
L 307.239895 91.751772 
L 309.324627 93.78499 
L 323.073098 107.53346 
L 324.600706 106.769657 
L 339.876784 91.562228 
L 341.610716 90.21815 
L 342.932 89.381279 
L 344.459608 88.58351 
L 345.987216 87.951926 
L 347.514824 87.463006 
L 349.042431 87.108445 
L 350.570039 86.881189 
L 352.097647 86.775935 
L 353.625255 86.79094 
L 356.482652 87.150906 
L 356.680471 87.184822 
L 358.208078 87.572342 
L 359.735686 88.096095 
L 361.263294 88.766148 
L 363.721711 90.21815 
L 364.31851 90.639866 
L 365.846118 91.903795 
L 367.373725 93.476712 
L 368.901333 95.497032 
L 369.444561 96.352638 
L 370.428941 98.268335 
L 370.911053 99.419882 
L 371.413992 100.953504 
L 371.956549 103.608181 
L 372.020108 104.020748 
L 372.135262 105.55437 
L 372.129216 107.087992 
L 371.956549 108.901558 
L 371.750543 110.155236 
L 371.369926 111.688858 
L 370.428941 114.215712 
L 370.187457 114.756102 
L 368.901333 116.992011 
L 367.373725 119.008764 
L 365.569047 120.890591 
L 351.766449 134.693189 
L 351.766449 136.226811 
L 367.373725 151.911236 
L 368.901333 153.927989 
L 369.353454 154.630276 
L 370.428941 156.704288 
L 370.852994 157.69752 
L 371.369926 159.231142 
L 371.956549 162.018442 
L 372.001872 162.298386 
L 372.129216 163.832008 
L 372.135262 165.36563 
L 371.956549 167.311819 
L 371.781395 168.432874 
L 371.413992 169.966496 
L 370.428941 172.651665 
L 370.261662 173.03374 
L 368.901333 175.422968 
L 368.438751 176.100984 
L 367.206999 177.634606 
L 365.677501 179.168228 
L 363.721711 180.70185 
L 362.790902 181.312227 
L 361.08477 182.235472 
L 359.735686 182.823905 
L 358.208078 183.347658 
L 356.482652 183.769094 
L 355.152863 183.993545 
L 353.625255 184.12906 
L 352.097647 184.144065 
L 350.570039 184.038811 
L 348.855968 183.769094 
L 347.514824 183.456994 
L 345.987216 182.968074 
L 344.256944 182.235472 
L 342.932 181.538721 
L 341.404392 180.561318 
L 339.66415 179.168228 
L 335.017725 174.567362 
L 324.600706 164.150343 
L 323.073098 163.38654 
L 307.239895 179.168228 
L 305.291633 180.70185 
L 304.741804 181.074687 
L 302.638978 182.235472 
L 301.686588 182.670682 
L 300.15898 183.229814 
L 298.013852 183.769094 
L 297.103765 183.940617 
L 295.576157 184.106533 
L 294.048549 184.151563 
L 292.520941 184.076461 
L 290.993333 183.879974 
L 290.993333 183.879974 
" style="fill:none;stroke:#ffd166;stroke-width:8;"/>
   </g>
  </g>
 </g>
 <defs>
  <clipPath id="pc6613a275c">
   <rect height="194.77" width="389.54" x="31.3" y="38.075"/>
  </clipPath>
 </defs>
</svg>
