<?xml version="1.0" encoding="utf-8" standalone="no"?>
<!DOCTYPE svg PUBLIC "-//W3C//DTD SVG 1.1//EN"
  "http://www.w3.org/Graphics/SVG/1.1/DTD/svg11.dtd">
<!-- Created with matplotlib (https://matplotlib.org/) -->
<svg height="288pt" version="1.1" viewBox="0 0 432 288" width="432pt" xmlns="http://www.w3.org/2000/svg" xmlns:xlink="http://www.w3.org/1999/xlink">
 <metadata>
  <rdf:RDF xmlns:cc="http://creativecommons.org/ns#" xmlns:dc="http://purl.org/dc/elements/1.1/" xmlns:rdf="http://www.w3.org/1999/02/22-rdf-syntax-ns#">
   <cc:Work>
    <dc:type rdf:resource="http://purl.org/dc/dcmitype/StillImage"/>
    <dc:date>2021-06-04T12:58:53.153373</dc:date>
    <dc:format>image/svg+xml</dc:format>
    <dc:creator>
     <cc:Agent>
      <dc:title>Matplotlib v3.3.4, https://matplotlib.org/</dc:title>
     </cc:Agent>
    </dc:creator>
   </cc:Work>
  </rdf:RDF>
 </metadata>
 <defs>
  <style type="text/css">*{stroke-linecap:butt;stroke-linejoin:round;}</style>
 </defs>
 <g id="figure_1">
  <g id="patch_1">
   <path d="M 0 288 
L 432 288 
L 432 0 
L 0 0 
z
" style="fill:none;"/>
  </g>
  <g id="axes_1">
   <g id="LineCollection_1">
    <path clip-path="url(#p0fce79533f)" d="M 118.373647 192.973978 
L 115.318431 192.341339 
L 111.94048 191.437205 
L 109.208 190.548699 
L 106.152784 189.371048 
L 103.097569 187.989801 
L 100.042353 186.388013 
L 96.987137 184.544154 
L 93.670334 182.235472 
L 90.876706 180.007392 
L 87.82149 177.222751 
L 84.766275 173.995896 
L 82.6949 171.500118 
L 80.183451 168.040217 
L 78.487628 165.36563 
L 76.783191 162.298386 
L 75.308454 159.231142 
L 74.04504 156.163898 
L 72.979646 153.096654 
L 72.099804 150.029409 
L 71.397437 146.962165 
L 70.866062 143.894921 
L 70.501107 140.827677 
L 70.299309 137.760433 
L 70.259033 134.693189 
L 70.379946 131.625945 
L 70.663038 128.558701 
L 71.110649 125.491457 
L 71.726936 122.424213 
L 72.545412 119.261171 
L 73.488775 116.289724 
L 74.651728 113.22248 
L 76.018476 110.155236 
L 77.605732 107.087992 
L 79.434757 104.020748 
L 81.711059 100.711892 
L 83.939545 97.88626 
L 86.705625 94.819016 
L 89.910426 91.751772 
L 92.404314 89.659512 
L 95.819769 87.150906 
L 98.514745 85.421328 
L 101.569961 83.702268 
L 104.625176 82.213036 
L 107.680392 80.935022 
L 110.735608 79.854607 
L 113.790824 78.959459 
L 116.846039 78.241073 
L 119.901255 77.693052 
L 122.956471 77.310535 
L 126.011686 77.090197 
L 129.066902 77.030248 
L 132.122118 77.130197 
L 135.177333 77.390863 
L 138.986526 77.949173 
L 141.287765 78.404509 
L 145.426908 79.482795 
L 147.398196 80.107136 
L 150.453412 81.235676 
L 153.508627 82.564203 
L 156.563843 84.108826 
L 159.619059 85.890171 
L 162.674275 87.93409 
L 165.72949 90.273119 
L 169.123553 93.285394 
L 172.09757 96.352638 
L 174.895137 99.702743 
L 176.922009 102.487126 
L 178.881502 105.55437 
L 180.586674 108.621614 
L 182.061318 111.688858 
L 183.324337 114.756102 
L 184.390428 117.823346 
L 185.270244 120.890591 
L 185.972565 123.957835 
L 186.503873 127.025079 
L 186.868907 130.092323 
L 187.070697 133.159567 
L 187.110968 136.226811 
L 186.990068 139.294055 
L 186.706956 142.361299 
L 186.259241 145.428543 
L 185.588392 148.722935 
L 184.852872 151.563031 
L 183.88152 154.630276 
L 182.533176 158.13488 
L 181.005569 161.465237 
L 179.477961 164.336741 
L 177.936895 166.899252 
L 175.836777 169.966496 
L 173.367529 173.110878 
L 170.312314 176.461657 
L 167.257098 179.349291 
L 163.697919 182.235472 
L 161.146667 184.043093 
L 158.091451 185.950569 
L 155.036235 187.610499 
L 151.98102 189.045309 
L 148.925804 190.272778 
L 145.426908 191.437205 
L 142.815373 192.156385 
L 138.986526 192.970827 
L 136.704941 193.337926 
L 133.649725 193.679662 
L 130.59451 193.859785 
L 127.539294 193.879765 
L 124.484078 193.739765 
L 121.428863 193.438639 
L 118.373647 192.973978 
L 118.373647 192.973978 
" style="fill:none;stroke:#ef476f;stroke-width:8;"/>
    <path clip-path="url(#p0fce79533f)" d="M 290.993333 183.879974 
L 289.465725 183.557948 
L 287.938118 183.103331 
L 285.839496 182.235472 
L 284.882902 181.754361 
L 283.17817 180.70185 
L 281.239056 179.168228 
L 279.707718 177.634606 
L 278.469629 176.100984 
L 277.244863 174.172156 
L 276.649941 173.03374 
L 275.717255 170.654986 
L 275.495472 169.966496 
L 275.12889 168.432874 
L 274.89006 166.899252 
L 274.774749 165.36563 
L 274.7808 163.832008 
L 274.90833 162.298386 
L 275.159713 160.764764 
L 275.717255 158.692351 
L 276.056891 157.69752 
L 277.244863 155.182439 
L 277.555913 154.630276 
L 278.772471 152.846374 
L 280.300078 151.078932 
L 295.143551 136.226811 
L 295.143551 134.693189 
L 279.845046 119.356969 
L 278.580721 117.823346 
L 277.244863 115.737561 
L 276.723563 114.756102 
L 275.717255 112.227649 
L 275.539373 111.688858 
L 275.159713 110.155236 
L 274.90833 108.621614 
L 274.7808 107.087992 
L 274.774749 105.55437 
L 274.89006 104.020748 
L 275.12889 102.487126 
L 275.717255 100.265014 
L 275.998531 99.419882 
L 277.244863 96.747844 
L 277.463716 96.352638 
L 278.772471 94.418907 
L 280.300078 92.65199 
L 281.827686 91.241424 
L 283.355294 90.094088 
L 285.839496 88.684528 
L 286.41051 88.411741 
L 287.938118 87.816669 
L 290.460544 87.150906 
L 290.993333 87.040026 
L 292.520941 86.843539 
L 294.048549 86.768437 
L 295.576157 86.813467 
L 298.013852 87.150906 
L 298.631373 87.269362 
L 300.15898 87.690186 
L 302.638978 88.684528 
L 303.214196 88.96066 
L 305.291633 90.21815 
L 307.239895 91.751772 
L 309.324627 93.78499 
L 323.073098 107.53346 
L 324.600706 106.769657 
L 339.876784 91.562228 
L 341.610716 90.21815 
L 342.932 89.381279 
L 344.459608 88.58351 
L 345.987216 87.951926 
L 347.514824 87.463006 
L 349.042431 87.108445 
L 350.570039 86.881189 
L 352.097647 86.775935 
L 353.625255 86.79094 
L 356.482652 87.150906 
L 356.680471 87.184822 
L 358.208078 87.572342 
L 359.735686 88.096095 
L 361.263294 88.766148 
L 363.721711 90.21815 
L 364.31851 90.639866 
L 365.846118 91.903795 
L 367.373725 93.476712 
L 368.901333 95.497032 
L 369.444561 96.352638 
L 370.428941 98.268335 
L 370.911053 99.419882 
L 371.413992 100.953504 
L 371.956549 103.608181 
L 372.020108 104.020748 
L 372.135262 105.55437 
L 372.129216 107.087992 
L 371.956549 108.901558 
L 371.750543 110.155236 
L 371.369926 111.688858 
L 370.428941 114.215712 
L 370.187457 114.756102 
L 368.901333 116.992011 
L 367.373725 119.008764 
L 365.569047 120.890591 
L 351.766449 134.693189 
L 351.766449 136.226811 
L 367.373725 151.911236 
L 368.901333 153.927989 
L 369.353454 154.630276 
L 370.428941 156.704288 
L 370.852994 157.69752 
L 371.369926 159.231142 
L 371.956549 162.018442 
L 372.001872 162.298386 
L 372.129216 163.832008 
L 372.135262 165.36563 
L 371.956549 167.311819 
L 371.781395 168.432874 
L 371.413992 169.966496 
L 370.428941 172.651665 
L 370.261662 173.03374 
L 368.901333 175.422968 
L 368.438751 176.100984 
L 367.206999 177.634606 
L 365.677501 179.168228 
L 363.721711 180.70185 
L 362.790902 181.312227 
L 361.08477 182.235472 
L 359.735686 182.823905 
L 358.208078 183.347658 
L 356.482652 183.769094 
L 355.152863 183.993545 
L 353.625255 184.12906 
L 352.097647 184.144065 
L 350.570039 184.038811 
L 348.855968 183.769094 
L 347.514824 183.456994 
L 345.987216 182.968074 
L 344.256944 182.235472 
L 342.932 181.538721 
L 341.404392 180.561318 
L 339.66415 179.168228 
L 335.017725 174.567362 
L 324.600706 164.150343 
L 323.073098 163.38654 
L 307.239895 179.168228 
L 305.291633 180.70185 
L 304.741804 181.074687 
L 302.638978 182.235472 
L 301.686588 182.670682 
L 300.15898 183.229814 
L 298.013852 183.769094 
L 297.103765 183.940617 
L 295.576157 184.106533 
L 294.048549 184.151563 
L 292.520941 184.076461 
L 290.993333 183.879974 
L 290.993333 183.879974 
" style="fill:none;stroke:#ef476f;stroke-width:8;"/>
   </g>
  </g>
 </g>
 <defs>
  <clipPath id="p0fce79533f">
   <rect height="194.77" width="389.54" x="31.3" y="38.075"/>
  </clipPath>
 </defs>
</svg>
