<?xml version="1.0" encoding="utf-8" standalone="no"?>
<!DOCTYPE svg PUBLIC "-//W3C//DTD SVG 1.1//EN"
  "http://www.w3.org/Graphics/SVG/1.1/DTD/svg11.dtd">
<!-- Created with matplotlib (https://matplotlib.org/) -->
<svg height="288pt" version="1.1" viewBox="0 0 432 288" width="432pt" xmlns="http://www.w3.org/2000/svg" xmlns:xlink="http://www.w3.org/1999/xlink">
 <metadata>
  <rdf:RDF xmlns:cc="http://creativecommons.org/ns#" xmlns:dc="http://purl.org/dc/elements/1.1/" xmlns:rdf="http://www.w3.org/1999/02/22-rdf-syntax-ns#">
   <cc:Work>
    <dc:type rdf:resource="http://purl.org/dc/dcmitype/StillImage"/>
    <dc:date>2021-06-04T12:58:53.208596</dc:date>
    <dc:format>image/svg+xml</dc:format>
    <dc:creator>
     <cc:Agent>
      <dc:title>Matplotlib v3.3.4, https://matplotlib.org/</dc:title>
     </cc:Agent>
    </dc:creator>
   </cc:Work>
  </rdf:RDF>
 </metadata>
 <defs>
  <style type="text/css">*{stroke-linecap:butt;stroke-linejoin:round;}</style>
 </defs>
 <g id="figure_1">
  <g id="patch_1">
   <path d="M 0 288 
L 432 288 
L 432 0 
L 0 0 
z
" style="fill:none;"/>
  </g>
  <g id="axes_1">
   <g id="LineCollection_1">
    <path clip-path="url(#pf754d9a1eb)" d="M 313.907451 193.105652 
L 310.852235 192.515491 
L 306.713092 191.437205 
L 304.741804 190.812864 
L 301.686588 189.684324 
L 298.631373 188.355797 
L 295.576157 186.811174 
L 292.520941 185.029829 
L 289.465725 182.98591 
L 286.41051 180.646881 
L 283.016447 177.634606 
L 280.04243 174.567362 
L 277.244863 171.217257 
L 275.217991 168.432874 
L 273.258498 165.36563 
L 271.553326 162.298386 
L 270.078682 159.231142 
L 268.815663 156.163898 
L 267.749572 153.096654 
L 266.869756 150.029409 
L 266.167435 146.962165 
L 265.636127 143.894921 
L 265.271093 140.827677 
L 265.069303 137.760433 
L 265.029032 134.693189 
L 265.149932 131.625945 
L 265.433044 128.558701 
L 265.880759 125.491457 
L 266.551608 122.197065 
L 267.287128 119.356969 
L 268.25848 116.289724 
L 269.606824 112.78512 
L 271.134431 109.454763 
L 272.662039 106.583259 
L 274.203105 104.020748 
L 276.303223 100.953504 
L 278.772471 97.809122 
L 281.827686 94.458343 
L 284.882902 91.570709 
L 288.442081 88.684528 
L 290.993333 86.876907 
L 294.048549 84.969431 
L 297.103765 83.309501 
L 300.15898 81.874691 
L 303.214196 80.647222 
L 306.713092 79.482795 
L 309.324627 78.763615 
L 313.153474 77.949173 
L 315.435059 77.582074 
L 318.490275 77.240338 
L 321.54549 77.060215 
L 324.600706 77.040235 
L 327.655922 77.180235 
L 330.711137 77.481361 
L 333.782761 77.949173 
L 336.821569 78.578661 
L 340.19952 79.482795 
L 342.932 80.371301 
L 345.987216 81.548952 
L 349.042431 82.930199 
L 352.097647 84.531987 
L 355.152863 86.375846 
L 358.469666 88.684528 
L 361.263294 90.912608 
L 364.31851 93.697249 
L 367.373725 96.924104 
L 369.4451 99.419882 
L 371.956549 102.879783 
L 373.652372 105.55437 
L 375.356809 108.621614 
L 376.831546 111.688858 
L 378.09496 114.756102 
L 379.160354 117.823346 
L 380.040196 120.890591 
L 380.742563 123.957835 
L 381.273938 127.025079 
L 381.638893 130.092323 
L 381.840691 133.159567 
L 381.880967 136.226811 
L 381.760054 139.294055 
L 381.476962 142.361299 
L 381.029351 145.428543 
L 380.413064 148.495787 
L 379.594588 151.658829 
L 378.651225 154.630276 
L 377.488272 157.69752 
L 376.121524 160.764764 
L 374.534268 163.832008 
L 372.705243 166.899252 
L 370.428941 170.208108 
L 368.200455 173.03374 
L 365.434375 176.100984 
L 362.229574 179.168228 
L 359.735686 181.260488 
L 356.320231 183.769094 
L 353.625255 185.498672 
L 350.570039 187.217732 
L 347.514824 188.706964 
L 344.459608 189.984978 
L 341.404392 191.065393 
L 338.349176 191.960541 
L 335.293961 192.678927 
L 332.238745 193.226948 
L 329.183529 193.609465 
L 326.128314 193.829803 
L 323.073098 193.889752 
L 320.017882 193.789803 
L 316.962667 193.529137 
L 313.907451 193.105652 
L 313.907451 193.105652 
" style="fill:none;stroke:#06d6a0;stroke-width:8;"/>
    <path clip-path="url(#pf754d9a1eb)" d="M 96.987137 183.993545 
L 95.459529 183.735178 
L 93.931922 183.347658 
L 92.404314 182.823905 
L 90.876706 182.153852 
L 88.418289 180.70185 
L 87.82149 180.280134 
L 86.293882 179.016205 
L 84.766275 177.443288 
L 83.238667 175.422968 
L 82.695439 174.567362 
L 81.711059 172.651665 
L 81.228947 171.500118 
L 80.726008 169.966496 
L 80.183451 167.311819 
L 80.119892 166.899252 
L 80.004738 165.36563 
L 80.010784 163.832008 
L 80.183451 162.018442 
L 80.389457 160.764764 
L 80.770074 159.231142 
L 81.711059 156.704288 
L 81.952543 156.163898 
L 83.238667 153.927989 
L 84.766275 151.911236 
L 86.570953 150.029409 
L 100.373551 136.226811 
L 100.373551 134.693189 
L 84.766275 119.008764 
L 83.238667 116.992011 
L 82.786546 116.289724 
L 81.711059 114.215712 
L 81.287006 113.22248 
L 80.770074 111.688858 
L 80.183451 108.901558 
L 80.138128 108.621614 
L 80.010784 107.087992 
L 80.004738 105.55437 
L 80.183451 103.608181 
L 80.358605 102.487126 
L 80.726008 100.953504 
L 81.711059 98.268335 
L 81.878338 97.88626 
L 83.238667 95.497032 
L 83.701249 94.819016 
L 84.933001 93.285394 
L 86.462499 91.751772 
L 88.418289 90.21815 
L 89.349098 89.607773 
L 91.05523 88.684528 
L 92.404314 88.096095 
L 93.931922 87.572342 
L 95.657348 87.150906 
L 96.987137 86.926455 
L 98.514745 86.79094 
L 100.042353 86.775935 
L 101.569961 86.881189 
L 103.284032 87.150906 
L 104.625176 87.463006 
L 106.152784 87.951926 
L 107.883056 88.684528 
L 109.208 89.381279 
L 110.735608 90.358682 
L 112.47585 91.751772 
L 117.122275 96.352638 
L 127.539294 106.769657 
L 129.066902 107.53346 
L 144.900105 91.751772 
L 146.848367 90.21815 
L 147.398196 89.845313 
L 149.501022 88.684528 
L 150.453412 88.249318 
L 151.98102 87.690186 
L 154.126148 87.150906 
L 155.036235 86.979383 
L 156.563843 86.813467 
L 158.091451 86.768437 
L 159.619059 86.843539 
L 161.679456 87.150906 
L 162.674275 87.362052 
L 164.201882 87.816669 
L 166.300504 88.684528 
L 167.257098 89.165639 
L 168.96183 90.21815 
L 170.900944 91.751772 
L 172.432282 93.285394 
L 173.670371 94.819016 
L 174.895137 96.747844 
L 175.490059 97.88626 
L 176.422745 100.265014 
L 176.644528 100.953504 
L 177.01111 102.487126 
L 177.24994 104.020748 
L 177.365251 105.55437 
L 177.3592 107.087992 
L 177.23167 108.621614 
L 176.980287 110.155236 
L 176.422745 112.227649 
L 176.083109 113.22248 
L 174.895137 115.737561 
L 174.584087 116.289724 
L 173.367529 118.073626 
L 171.839922 119.841068 
L 156.996449 134.693189 
L 156.996449 136.226811 
L 172.294954 151.563031 
L 173.559279 153.096654 
L 174.895137 155.182439 
L 175.416437 156.163898 
L 176.422745 158.692351 
L 176.600627 159.231142 
L 176.980287 160.764764 
L 177.23167 162.298386 
L 177.3592 163.832008 
L 177.365251 165.36563 
L 177.24994 166.899252 
L 177.01111 168.432874 
L 176.422745 170.654986 
L 176.141469 171.500118 
L 174.895137 174.172156 
L 174.676284 174.567362 
L 173.367529 176.501093 
L 171.839922 178.26801 
L 170.312314 179.678576 
L 168.784706 180.825912 
L 166.300504 182.235472 
L 165.72949 182.508259 
L 164.201882 183.103331 
L 161.679456 183.769094 
L 161.146667 183.879974 
L 159.619059 184.076461 
L 158.091451 184.151563 
L 156.563843 184.106533 
L 154.126148 183.769094 
L 153.508627 183.650638 
L 151.98102 183.229814 
L 149.501022 182.235472 
L 148.925804 181.95934 
L 146.848367 180.70185 
L 144.900105 179.168228 
L 142.815373 177.13501 
L 129.066902 163.38654 
L 127.539294 164.150343 
L 112.263216 179.357772 
L 110.529284 180.70185 
L 109.208 181.538721 
L 107.680392 182.33649 
L 106.152784 182.968074 
L 104.625176 183.456994 
L 103.097569 183.811555 
L 101.569961 184.038811 
L 100.042353 184.144065 
L 98.514745 184.12906 
L 96.987137 183.993545 
L 96.987137 183.993545 
" style="fill:none;stroke:#06d6a0;stroke-width:8;"/>
   </g>
  </g>
 </g>
 <defs>
  <clipPath id="pf754d9a1eb">
   <rect height="194.77" width="389.54" x="31.3" y="38.075"/>
  </clipPath>
 </defs>
</svg>
