<svg id="Layer_1" data-name="Layer 1" xmlns="http://www.w3.org/2000/svg" viewBox="0 0 618 560"><defs><style>.cls-1,.cls-2,.cls-3,.cls-4,.cls-5{fill:none;stroke-linecap:round;stroke-linejoin:round;stroke-width:3px;}.cls-1{stroke:#000;}.cls-2{stroke:#f4b400;}.cls-3{stroke:#0f9d58;}.cls-4{stroke:#db4437;}.cls-5{stroke:#4285f4;}</style></defs><line class="cls-1" x1="447.23" y1="8.45" x2="323.05" y2="251.37"/><line class="cls-1" x1="287.61" y1="320.7" x2="170.59" y2="549.62"/><line class="cls-1" x1="340.17" y1="237.67" x2="330.47" y2="250.51"/><path class="cls-1" d="M164.06,470.74C156,481,148,491,140.63,501.74"/><path class="cls-1" d="M279.78,317.59C266,337,252,354,238,374c-23,30-44,59-67,87.49"/><path class="cls-2" d="M466.39,70.62C470,66,474,61,477.19,56.33"/><path class="cls-1" d="M346.85,228.83C385,180,421,129,459.41,79.87"/><line class="cls-1" x1="364.15" y1="227.66" x2="524.73" y2="78.31"/><path class="cls-1" d="M196.08,384C190,390,184,395,178,400c-28,28-57,53-84.91,79.77"/><path class="cls-1" d="M260.45,324.11C242,342,223,359,204.23,376.39"/><line class="cls-1" x1="390.74" y1="226.05" x2="545.92" y2="125.56"/><path class="cls-3" d="M97.33,416C89,422,79,426,71.91,432.51"/><path class="cls-1" d="M244.05,321C198,351,152,381,106.48,410.12"/><line class="cls-1" x1="373.04" y1="237.51" x2="385.75" y2="229.28"/><line class="cls-1" x1="584.21" y1="162.61" x2="414.26" y2="234.48"/><line class="cls-1" x1="191.48" y1="328.7" x2="196.1" y2="326.75"/><path class="cls-1" d="M116.07,360.59C88,371,62,385,33.62,395.47"/><path class="cls-1" d="M159.81,342.09l-22.31,9.44-12.13,5.13"/><line class="cls-1" x1="109.18" y1="324.87" x2="116.58" y2="323.17"/><line class="cls-1" x1="450.37" y1="246.57" x2="468.39" y2="242.44"/><line class="cls-1" x1="534.54" y1="227.26" x2="521.28" y2="230.3"/><line class="cls-1" x1="540.33" y1="225.93" x2="570.46" y2="219.01"/><line class="cls-1" x1="165.12" y1="312.03" x2="155.42" y2="314.26"/><line class="cls-1" x1="109.05" y1="324.9" x2="47.36" y2="339.06"/><line class="cls-1" x1="40.48" y1="292.75" x2="7.83" y2="294.42"/><line class="cls-1" x1="609.99" y1="263.65" x2="587.08" y2="264.82"/><line class="cls-1" x1="116.14" y1="288.88" x2="115.62" y2="288.91"/><line class="cls-1" x1="487.72" y1="301.23" x2="495.24" y2="302.16"/><line class="cls-1" x1="549.8" y1="308.93" x2="560.04" y2="310.21"/><line class="cls-1" x1="78.21" y1="250.4" x2="92.3" y2="252.15"/><line class="cls-1" x1="121.55" y1="255.78" x2="160.19" y2="260.58"/><line class="cls-1" x1="68.46" y1="205.18" x2="247.73" y2="260.24"/><line class="cls-1" x1="367.38" y1="297" x2="359.65" y2="294.62"/><line class="cls-1" x1="549.36" y1="352.89" x2="401.43" y2="307.45"/><line class="cls-1" x1="262.4" y1="255.26" x2="63.29" y2="153.48"/><line class="cls-1" x1="374.39" y1="312.51" x2="358" y2="304.13"/><line class="cls-1" x1="378.12" y1="314.41" x2="554.54" y2="404.59"/><path class="cls-1" d="M382.49,334.63C374,328,365,321,356.15,314.73"/><path class="cls-1" d="M527.06,443.87C494,419,463,395,429,370c-13-10-24-20-37.26-28.38"/><path class="cls-1" d="M138.32,150.13C163,169,188,188,214,208c23,17,44,33,66.22,49.35"/><path class="cls-4" d="M90.76,114.2C103,124,116,133,129.27,143.3"/><path class="cls-1" d="M288.6,257.19l-26.9-28.91-41.5-44.63-44.77-48.13L138.74,96.07,121.46,77.49l-.23-.24"/><line class="cls-1" x1="496.59" y1="480.82" x2="343.92" y2="316.68"/><path class="cls-5" d="M422.67,454.72C431,468,439,480,446.56,491.61"/><path class="cls-1" d="M333.75,317.39C340,327,346,336,353,346c1,2,1,3,2,5,13,19,23,35,35,54,10,14,18,28,26.75,40.57"/><line class="cls-1" x1="294.07" y1="256.12" x2="171.26" y2="66.46"/><line class="cls-1" x1="193.02" y1="5.03" x2="298.45" y2="254.29"/><path class="cls-1" d="M424.8,553.05C401,498,378,443,355,387a392.9,392.9,0,0,1-18-43c-5-13-12-24-16.16-36.75"/><path class="cls-1" d="M284.4,172.23C274,125,262,78,252,31.13"/><path class="cls-1" d="M303.16,254C299,240,298,226,293,212c-3-10-4-20-6.43-30.31"/><line class="cls-1" x1="365.8" y1="526.94" x2="314.76" y2="304.54"/><line class="cls-1" x1="295.89" y1="24.18" x2="307.61" y2="253.63"/><line class="cls-1" x1="310.96" y1="319.04" x2="321.93" y2="533.89"/><path class="cls-1" d="M284.62,474.71C282,493,280,510,278,528.05"/><path class="cls-1" d="M303.88,319.55C298,369,291,417,285.76,465.59"/><line class="cls-1" x1="339.82" y1="30.02" x2="312.1" y2="253.31"/><line class="cls-1" x1="296.3" y1="320.09" x2="233.81" y2="523.53"/><line class="cls-1" x1="384.01" y1="34.54" x2="316.92" y2="252.96"/><path d="M58.05,240.75q6.75.85,13.5,1.55l-5.1,28.05q15.1,1.69,30.2,2.74l5.1-28.26q6.75.43,13.5.74-6.34,35.51-12.7,70.91-6.75-.42-13.5-1,2.7-14.89,5.4-29.79-15.09-1.11-30.2-2.83-2.7,14.79-5.4,29.55-6.75-.82-13.5-1.8Q51.71,275.76,58.05,240.75Z"/><path d="M131.25,314.88q-6.19-23.53-12.4-47.14,7.35.31,14.7.5,3.66,15.25,7.3,30.47h.7q8.85-15,17.7-30.14,7.41,0,14.8-.09-21.8,35.86-43.6,70.87-7.14-.21-14.3-.54Q123.71,326.91,131.25,314.88Z"/><path d="M181,268.38q6.15-.11,12.3-.28-.54,3-1.1,5.93l.8,0a17.51,17.51,0,0,1,6.2-5.64,20.91,20.91,0,0,1,9.5-2.38,18.47,18.47,0,0,1,10.45,2.57,19.3,19.3,0,0,1,7.3,8,25.4,25.4,0,0,1,2.65,11.77,32.5,32.5,0,0,1-3.55,15,29.16,29.16,0,0,1-9.95,11.25,27.21,27.21,0,0,1-14.5,4.55,18.46,18.46,0,0,1-9.05-1.93,12.93,12.93,0,0,1-5.85-5.25h-.8l-.3,7.11-3.6,20.57q-6.54.12-13.1.18Q174.65,304.1,181,268.38Zm27.6,36.11a16,16,0,0,0,5.45-6.16A18.14,18.14,0,0,0,216,290q0-5.61-3.35-8.77a11.61,11.61,0,0,0-8.75-3,15.68,15.68,0,0,0-13.2,8.31,18,18,0,0,0-2.1,8.75,11.27,11.27,0,0,0,3.4,8.61,11.57,11.57,0,0,0,8.7,3A14.74,14.74,0,0,0,208.55,304.49Z"/><path d="M247.35,313.75a19.79,19.79,0,0,1-8.15-8,24,24,0,0,1-2.85-11.7A31.07,31.07,0,0,1,265.75,263a23.18,23.18,0,0,1,11.9,2,17,17,0,0,1,7.55,7,20.53,20.53,0,0,1,2.55,10.17,27.1,27.1,0,0,1-1.4,8.8q-18.64,1.3-37.3,2.43c0,.36-.07.73-.1,1.1.07,3.4,1.23,6,3.5,7.69a11.85,11.85,0,0,0,8.2,2.3A17.81,17.81,0,0,0,269,302.1a17.27,17.27,0,0,0,5.65-5.83l9.9,4.52a35.21,35.21,0,0,1-10.4,11,29.43,29.43,0,0,1-14.5,4.4A22.61,22.61,0,0,1,247.35,313.75Zm28.2-31.34V282a7.73,7.73,0,0,0-2.9-6.15q-2.89-2.46-8-2.13A15.27,15.27,0,0,0,256,277a15.68,15.68,0,0,0-5.25,7Q263.15,283.26,275.55,282.41Z"/><path d="M301.15,262.12l12.2-.88c-.37,2.1-.73,4.19-1.1,6.28l.8,0a18.36,18.36,0,0,1,6.5-6.12,20.63,20.63,0,0,1,9.1-2.81,13,13,0,0,1,6,.77q-1.15,6.63-2.3,13.27a14.67,14.67,0,0,0-7.8-1.34,14.29,14.29,0,0,0-9.65,4.7,20.2,20.2,0,0,0-5.15,10.7q-2.14,12.39-4.3,24.77-6.49.48-13,.93Z"/><path d="M348.45,236.74q7.5-.53,15-1Q374,259,384.55,282.41l.8,0q.79-6.94,1.6-13.89,3-17.28,6.1-34.55,6.65-.36,13.3-.68-6.35,36.11-12.7,72.25-6.64.36-13.3.76-11.14-24.67-22.3-49.27l-.8.05q-.79,7-1.6,13.91-3.25,18.66-6.5,37.34l-13.4.94Q342.1,273,348.45,236.74Z"/><path d="M419.15,302.73a20.3,20.3,0,0,1-8.15-8.15,24,24,0,0,1-2.85-11.72,30.53,30.53,0,0,1,3.7-14.62A30.07,30.07,0,0,1,422.25,257a29.37,29.37,0,0,1,15.3-4.57,23.27,23.27,0,0,1,11.9,2.51,18.27,18.27,0,0,1,7.55,7.43,21.33,21.33,0,0,1,2.55,10.32,26.34,26.34,0,0,1-1.4,8.71q-18.64.24-37.3,1l-.1,1.1c.07,3.4,1.23,6,3.5,7.77a12.22,12.22,0,0,0,8.2,2.51,17.56,17.56,0,0,0,8.35-2.1,16.36,16.36,0,0,0,5.65-5.58q4.95,2.49,9.9,5A33.29,33.29,0,0,1,446,301.57a29.38,29.38,0,0,1-14.5,3.85A23.32,23.32,0,0,1,419.15,302.73Zm28.2-30.44v-.4a8.12,8.12,0,0,0-2.9-6.29c-1.93-1.72-4.6-2.54-8-2.44a14.73,14.73,0,0,0-8.65,3,15.11,15.11,0,0,0-5.25,6.89Q435,272.56,447.35,272.29Z"/><path d="M478.45,231.53q11.81.06,23.6.41A25.53,25.53,0,0,1,513.9,235a21.32,21.32,0,0,1,8,7.58,19.36,19.36,0,0,1,2.85,10.21,21.32,21.32,0,0,1-5.35,14.77A23.84,23.84,0,0,1,506,275.17l-.2.69q7,13.74,14,27.59c-.07.27-.13.53-.2.79q-7.31-.36-14.6-.6-6.9-13.68-13.8-27.26c-2.37,0-4.73-.08-7.1-.1l-4.8,26.85q-6.75,0-13.5,0Q472.1,267.3,478.45,231.53Zm20.3,32.62q5.6.15,9.05-2.56c2.3-1.82,3.45-4.52,3.45-8.12a8.42,8.42,0,0,0-2.65-6.41,10.38,10.38,0,0,0-7.05-2.63q-6-.18-11.9-.28Q488,254,486.25,263.9,492.51,264,498.75,264.15Z"/><path d="M541.45,234c15.13,1.18,30.27,2.82,45.4,5q-1.1,6.24-2.2,12.48-16-2.25-32-3.73-1.54,8.55-3.1,17.12,14.4,1.27,28.8,3.15-1.15,6.26-2.3,12.51-14.35-1.84-28.7-3.06l-5.1,28.18q-6.75-.52-13.5-.94Q535.1,269.34,541.45,234Z"/></svg>