<?xml version="1.0" encoding="utf-8" standalone="no"?>
<!DOCTYPE svg PUBLIC "-//W3C//DTD SVG 1.1//EN"
  "http://www.w3.org/Graphics/SVG/1.1/DTD/svg11.dtd">
<!-- Created with matplotlib (https://matplotlib.org/) -->
<svg height="288pt" version="1.1" viewBox="0 0 432 288" width="432pt" xmlns="http://www.w3.org/2000/svg" xmlns:xlink="http://www.w3.org/1999/xlink">
 <metadata>
  <rdf:RDF xmlns:cc="http://creativecommons.org/ns#" xmlns:dc="http://purl.org/dc/elements/1.1/" xmlns:rdf="http://www.w3.org/1999/02/22-rdf-syntax-ns#">
   <cc:Work>
    <dc:type rdf:resource="http://purl.org/dc/dcmitype/StillImage"/>
    <dc:date>2021-06-04T00:29:48.478517</dc:date>
    <dc:format>image/svg+xml</dc:format>
    <dc:creator>
     <cc:Agent>
      <dc:title>Matplotlib v3.3.4, https://matplotlib.org/</dc:title>
     </cc:Agent>
    </dc:creator>
   </cc:Work>
  </rdf:RDF>
 </metadata>
 <defs>
  <style type="text/css">*{stroke-linecap:butt;stroke-linejoin:round;}</style>
 </defs>
 <g id="figure_1">
  <g id="patch_1">
   <path d="M 0 288 
L 432 288 
L 432 0 
L 0 0 
z
" style="fill:none;"/>
  </g>
  <g id="axes_1">
   <g id="LineCollection_1">
    <path clip-path="url(#p99849fb88a)" d="M 217.668157 212.913634 
L 213.085333 212.278221 
L 208.50251 211.361507 
L 203.919686 210.152634 
L 199.336863 208.63752 
L 196.281647 207.447679 
L 191.698824 205.375965 
L 188.493968 203.706181 
L 185.588392 202.024553 
L 182.533176 200.066725 
L 179.043479 197.571693 
L 176.422745 195.498218 
L 173.367529 192.836117 
L 170.312314 189.87243 
L 167.257098 186.553008 
L 164.201882 182.806035 
L 162.644323 180.70185 
L 160.565813 177.634606 
L 158.091451 173.515079 
L 156.221025 169.966496 
L 154.130953 165.36563 
L 152.386372 160.764764 
L 150.963621 156.163898 
L 149.844512 151.563031 
L 149.015774 146.962165 
L 148.468294 142.361299 
L 148.195974 137.760433 
L 148.195974 133.159567 
L 148.468294 128.558701 
L 149.015774 123.957835 
L 149.844512 119.356969 
L 150.963621 114.756102 
L 152.386372 110.155236 
L 154.130953 105.55437 
L 156.221025 100.953504 
L 158.091451 97.404921 
L 159.619059 94.791838 
L 161.578937 91.751772 
L 164.201882 88.113965 
L 166.193821 85.617283 
L 168.884987 82.550039 
L 171.883515 79.482795 
L 175.245093 76.415551 
L 179.043479 73.348307 
L 182.533176 70.853275 
L 185.834969 68.747441 
L 188.643608 67.130693 
L 193.226431 64.814027 
L 197.809255 62.858729 
L 202.392078 61.237415 
L 206.974902 59.928503 
L 211.557725 58.915695 
L 216.140549 58.187375 
L 220.723373 57.73569 
L 225.306196 57.555745 
L 229.88902 57.645666 
L 234.520241 58.012087 
L 239.054667 58.641779 
L 243.63749 59.558493 
L 248.220314 60.767366 
L 252.803137 62.28248 
L 255.858353 63.472321 
L 260.441176 65.544035 
L 263.646032 67.213819 
L 266.551608 68.895447 
L 269.606824 70.853275 
L 273.096521 73.348307 
L 275.717255 75.421782 
L 278.772471 78.083883 
L 281.827686 81.04757 
L 284.882902 84.366992 
L 287.938118 88.113965 
L 289.495677 90.21815 
L 291.574187 93.285394 
L 294.048549 97.404921 
L 295.918975 100.953504 
L 298.009047 105.55437 
L 299.753628 110.155236 
L 301.176379 114.756102 
L 302.295488 119.356969 
L 303.124226 123.957835 
L 303.671706 128.558701 
L 303.944026 133.159567 
L 303.944026 137.760433 
L 303.671706 142.361299 
L 303.124226 146.962165 
L 302.295488 151.563031 
L 301.176379 156.163898 
L 299.753628 160.764764 
L 298.009047 165.36563 
L 295.918975 169.966496 
L 294.048549 173.515079 
L 292.520941 176.128162 
L 290.561063 179.168228 
L 287.938118 182.806035 
L 285.946179 185.302717 
L 283.255013 188.369961 
L 280.256485 191.437205 
L 276.894907 194.504449 
L 273.096521 197.571693 
L 269.606824 200.066725 
L 266.305031 202.172559 
L 263.496392 203.789307 
L 258.913569 206.105973 
L 254.330745 208.061271 
L 249.747922 209.682585 
L 245.165098 210.991497 
L 240.582275 212.004305 
L 235.999451 212.732625 
L 231.416627 213.18431 
L 226.833804 213.364255 
L 222.25098 213.274334 
L 217.668157 212.913634 
L 217.668157 212.913634 
" style="fill:none;stroke:#118ab2;stroke-width:8;"/>
   </g>
  </g>
 </g>
 <defs>
  <clipPath id="p99849fb88a">
   <rect height="194.77" width="389.54" x="31.3" y="38.075"/>
  </clipPath>
 </defs>
</svg>
