<?xml version="1.0" encoding="utf-8" standalone="no"?>
<!DOCTYPE svg PUBLIC "-//W3C//DTD SVG 1.1//EN"
  "http://www.w3.org/Graphics/SVG/1.1/DTD/svg11.dtd">
<!-- Created with matplotlib (https://matplotlib.org/) -->
<svg height="288pt" version="1.1" viewBox="0 0 432 288" width="432pt" xmlns="http://www.w3.org/2000/svg" xmlns:xlink="http://www.w3.org/1999/xlink">
 <metadata>
  <rdf:RDF xmlns:cc="http://creativecommons.org/ns#" xmlns:dc="http://purl.org/dc/elements/1.1/" xmlns:rdf="http://www.w3.org/1999/02/22-rdf-syntax-ns#">
   <cc:Work>
    <dc:type rdf:resource="http://purl.org/dc/dcmitype/StillImage"/>
    <dc:date>2021-06-04T00:29:48.530262</dc:date>
    <dc:format>image/svg+xml</dc:format>
    <dc:creator>
     <cc:Agent>
      <dc:title>Matplotlib v3.3.4, https://matplotlib.org/</dc:title>
     </cc:Agent>
    </dc:creator>
   </cc:Work>
  </rdf:RDF>
 </metadata>
 <defs>
  <style type="text/css">*{stroke-linecap:butt;stroke-linejoin:round;}</style>
 </defs>
 <g id="figure_1">
  <g id="patch_1">
   <path d="M 0 288 
L 432 288 
L 432 0 
L 0 0 
z
" style="fill:none;"/>
  </g>
  <g id="axes_1">
   <g id="LineCollection_1">
    <path clip-path="url(#p0cfc20f375)" d="M 170.312314 213.046971 
L 165.72949 212.492265 
L 161.146667 211.658434 
L 156.563843 210.536006 
L 151.98102 209.111971 
L 147.398196 207.368382 
L 144.34298 206.016865 
L 141.287765 204.503909 
L 137.143945 202.172559 
L 133.649725 199.937547 
L 130.349889 197.571693 
L 126.553277 194.504449 
L 124.484078 192.659348 
L 121.428863 189.67486 
L 118.373647 186.331431 
L 115.318431 182.55653 
L 112.886654 179.168228 
L 110.735608 175.811574 
L 109.129098 173.03374 
L 107.52825 169.966496 
L 105.438468 165.36563 
L 103.693943 160.764764 
L 102.271148 156.163898 
L 101.151985 151.563031 
L 100.323305 146.962165 
L 99.775787 142.361299 
L 99.503473 137.760433 
L 99.503473 133.159567 
L 99.775787 128.558701 
L 100.323305 123.957835 
L 101.151985 119.356969 
L 102.271148 114.756102 
L 103.693943 110.155236 
L 105.438468 105.55437 
L 107.52825 100.953504 
L 109.208 97.744933 
L 110.910202 94.819016 
L 112.886654 91.751772 
L 115.318431 88.36347 
L 118.373647 84.588569 
L 120.193371 82.550039 
L 123.192167 79.482795 
L 126.553277 76.415551 
L 129.066902 74.34096 
L 132.447918 71.814685 
L 135.177333 69.971891 
L 138.232549 68.101371 
L 141.287765 66.416091 
L 144.34298 64.903135 
L 148.925804 62.933418 
L 153.508627 61.298649 
L 158.091451 59.977052 
L 162.674275 58.952145 
L 167.257098 58.212156 
L 171.839922 57.749061 
L 176.422745 57.557851 
L 181.005569 57.636529 
L 185.814713 58.012087 
L 190.171216 58.609742 
L 194.884758 59.545709 
L 199.336863 60.711026 
L 203.919686 62.213043 
L 208.50251 64.039651 
L 212.019125 65.680197 
L 216.140549 67.880868 
L 220.050202 70.281063 
L 222.309378 71.814685 
L 225.306196 74.041145 
L 226.833804 74.041145 
L 229.88902 71.773212 
L 232.944235 69.727712 
L 237.188468 67.213819 
L 240.582275 65.450631 
L 245.165098 63.393604 
L 249.747922 61.677418 
L 254.330745 60.279155 
L 258.913569 59.181232 
L 263.496392 58.370945 
L 268.079216 57.839201 
L 272.662039 57.580322 
L 277.244863 57.591561 
L 281.827686 57.873029 
L 286.41051 58.427735 
L 290.993333 59.261566 
L 295.576157 60.383994 
L 300.15898 61.808029 
L 304.741804 63.551618 
L 307.79702 64.903135 
L 310.852235 66.416091 
L 314.996055 68.747441 
L 318.490275 70.982453 
L 321.790111 73.348307 
L 325.586723 76.415551 
L 327.655922 78.260652 
L 330.711137 81.24514 
L 333.766353 84.588569 
L 336.821569 88.36347 
L 339.253346 91.751772 
L 341.404392 95.108426 
L 343.010902 97.88626 
L 344.61175 100.953504 
L 346.701532 105.55437 
L 348.446057 110.155236 
L 349.868852 114.756102 
L 350.988015 119.356969 
L 351.816695 123.957835 
L 352.364213 128.558701 
L 352.636527 133.159567 
L 352.636527 137.760433 
L 352.364213 142.361299 
L 351.816695 146.962165 
L 350.988015 151.563031 
L 349.868852 156.163898 
L 348.446057 160.764764 
L 346.701532 165.36563 
L 344.61175 169.966496 
L 342.932 173.175067 
L 341.229798 176.100984 
L 339.253346 179.168228 
L 336.821569 182.55653 
L 333.766353 186.331431 
L 331.946629 188.369961 
L 328.947833 191.437205 
L 325.586723 194.504449 
L 323.073098 196.57904 
L 319.692082 199.105315 
L 316.962667 200.948109 
L 313.907451 202.818629 
L 310.852235 204.503909 
L 307.79702 206.016865 
L 303.214196 207.986582 
L 298.631373 209.621351 
L 294.048549 210.942948 
L 289.465725 211.967855 
L 284.882902 212.707844 
L 280.300078 213.170939 
L 275.717255 213.362149 
L 271.134431 213.283471 
L 266.325287 212.907913 
L 261.968784 212.310258 
L 257.255242 211.374291 
L 252.803137 210.208974 
L 248.220314 208.706957 
L 243.63749 206.880349 
L 240.120875 205.239803 
L 235.999451 203.039132 
L 232.089798 200.638937 
L 229.830622 199.105315 
L 226.833804 196.878855 
L 225.306196 196.878855 
L 222.25098 199.146788 
L 219.195765 201.192288 
L 214.951532 203.706181 
L 211.557725 205.469369 
L 206.974902 207.526396 
L 202.392078 209.242582 
L 197.809255 210.640845 
L 193.226431 211.738768 
L 188.643608 212.549055 
L 184.060784 213.080799 
L 179.477961 213.339678 
L 174.895137 213.328439 
L 170.312314 213.046971 
L 170.312314 213.046971 
" style="fill:none;stroke:#ef476f;stroke-width:8;"/>
    <path clip-path="url(#p0cfc20f375)" d="M 272.662039 154.823335 
L 274.189647 154.928566 
L 275.717255 154.913564 
L 277.244863 154.778081 
L 278.124024 154.630276 
L 278.772471 154.519552 
L 280.300078 154.132061 
L 281.827686 153.608537 
L 283.006176 153.096654 
L 283.355294 152.937768 
L 284.882902 152.096994 
L 285.70084 151.563031 
L 286.41051 151.064113 
L 287.681348 150.029409 
L 287.938118 149.799228 
L 289.228981 148.495787 
L 289.465725 148.225871 
L 290.474507 146.962165 
L 290.993333 146.207299 
L 291.491226 145.428543 
L 292.316763 143.894921 
L 292.520941 143.433338 
L 292.974204 142.361299 
L 293.484129 140.827677 
L 293.85813 139.294055 
L 294.048549 138.106014 
L 294.103143 137.760433 
L 294.224391 136.226811 
L 294.224391 134.693189 
L 294.103143 133.159567 
L 294.048549 132.813986 
L 293.85813 131.625945 
L 293.484129 130.092323 
L 292.974204 128.558701 
L 292.520941 127.486662 
L 292.316763 127.025079 
L 291.491226 125.491457 
L 290.993333 124.712701 
L 290.474507 123.957835 
L 289.465725 122.694129 
L 289.228981 122.424213 
L 287.938118 121.120772 
L 287.681348 120.890591 
L 286.41051 119.855887 
L 285.70084 119.356969 
L 284.882902 118.823006 
L 283.355294 117.982232 
L 283.006176 117.823346 
L 281.827686 117.311463 
L 280.300078 116.787939 
L 278.772471 116.400448 
L 278.124024 116.289724 
L 277.244863 116.141919 
L 275.717255 116.006436 
L 274.189647 115.991434 
L 272.662039 116.096665 
L 271.36178 116.289724 
L 271.134431 116.323942 
L 269.606824 116.678624 
L 268.079216 117.167377 
L 266.551608 117.798501 
L 266.501555 117.823346 
L 265.024 118.596785 
L 263.818396 119.356969 
L 263.496392 119.575176 
L 261.968784 120.77641 
L 261.840067 120.890591 
L 260.441176 122.263828 
L 260.29409 122.424213 
L 259.046731 123.957835 
L 258.913569 124.146702 
L 258.034363 125.491457 
L 257.385961 126.679968 
L 257.207932 127.025079 
L 256.551175 128.558701 
L 256.040272 130.092323 
L 255.858353 130.83049 
L 255.666842 131.625945 
L 255.421996 133.159567 
L 255.300622 134.693189 
L 255.300622 136.226811 
L 255.421996 137.760433 
L 255.666842 139.294055 
L 255.858353 140.08951 
L 256.040272 140.827677 
L 256.551175 142.361299 
L 257.207932 143.894921 
L 257.385961 144.240032 
L 258.034363 145.428543 
L 258.913569 146.773298 
L 259.046731 146.962165 
L 260.29409 148.495787 
L 260.441176 148.656172 
L 261.840067 150.029409 
L 261.968784 150.14359 
L 263.496392 151.344824 
L 263.818396 151.563031 
L 265.024 152.323215 
L 266.501555 153.096654 
L 266.551608 153.121499 
L 268.079216 153.752623 
L 269.606824 154.241376 
L 271.134431 154.596058 
L 271.36178 154.630276 
L 272.662039 154.823335 
" style="fill:none;stroke:#ef476f;stroke-width:8;"/>
   </g>
  </g>
 </g>
 <defs>
  <clipPath id="p0cfc20f375">
   <rect height="194.77" width="389.54" x="31.3" y="38.075"/>
  </clipPath>
 </defs>
</svg>
