<?xml version="1.0" encoding="utf-8" standalone="no"?>
<!DOCTYPE svg PUBLIC "-//W3C//DTD SVG 1.1//EN"
  "http://www.w3.org/Graphics/SVG/1.1/DTD/svg11.dtd">
<!-- Created with matplotlib (https://matplotlib.org/) -->
<svg height="288pt" version="1.1" viewBox="0 0 432 288" width="432pt" xmlns="http://www.w3.org/2000/svg" xmlns:xlink="http://www.w3.org/1999/xlink">
 <metadata>
  <rdf:RDF xmlns:cc="http://creativecommons.org/ns#" xmlns:dc="http://purl.org/dc/elements/1.1/" xmlns:rdf="http://www.w3.org/1999/02/22-rdf-syntax-ns#">
   <cc:Work>
    <dc:type rdf:resource="http://purl.org/dc/dcmitype/StillImage"/>
    <dc:date>2021-06-04T00:29:48.588124</dc:date>
    <dc:format>image/svg+xml</dc:format>
    <dc:creator>
     <cc:Agent>
      <dc:title>Matplotlib v3.3.4, https://matplotlib.org/</dc:title>
     </cc:Agent>
    </dc:creator>
   </cc:Work>
  </rdf:RDF>
 </metadata>
 <defs>
  <style type="text/css">*{stroke-linecap:butt;stroke-linejoin:round;}</style>
 </defs>
 <g id="figure_1">
  <g id="patch_1">
   <path d="M 0 288 
L 432 288 
L 432 0 
L 0 0 
z
" style="fill:none;"/>
  </g>
  <g id="axes_1">
   <g id="LineCollection_1">
    <path clip-path="url(#pf37ea80547)" d="M 121.428863 213.029346 
L 116.846039 212.463144 
L 112.263216 211.617519 
L 107.680392 210.482806 
L 103.097569 209.045845 
L 98.514745 207.288504 
L 94.03948 205.239803 
L 90.876706 203.578621 
L 87.82149 201.790294 
L 83.756389 199.105315 
L 81.655829 197.571693 
L 77.861041 194.504449 
L 74.500456 191.437205 
L 71.50145 188.369961 
L 68.809091 185.302717 
L 66.38184 182.235472 
L 64.19419 179.168228 
L 61.852157 175.492642 
L 59.615164 171.500118 
L 58.09929 168.432874 
L 56.127253 163.832008 
L 54.492301 159.231142 
L 53.172576 154.630276 
L 52.151541 150.029409 
L 51.417418 145.428543 
L 50.962138 140.827677 
L 50.780774 136.226811 
L 50.871405 131.625945 
L 51.234969 127.025079 
L 51.875441 122.424213 
L 52.799583 117.823346 
L 54.018219 113.22248 
L 55.545907 108.621614 
L 57.269333 104.328984 
L 58.835542 100.953504 
L 60.436681 97.88626 
L 62.21809 94.819016 
L 64.907373 90.719386 
L 66.43498 88.614226 
L 69.490196 84.81128 
L 72.545412 81.443742 
L 75.600627 78.43836 
L 78.655843 75.739808 
L 81.711059 73.306296 
L 84.766275 71.112376 
L 88.452235 68.747441 
L 92.404314 66.51624 
L 95.459529 64.992852 
L 100.042353 63.00868 
L 104.625176 61.360423 
L 109.208 60.026114 
L 113.790824 58.989089 
L 118.373647 58.237418 
L 122.956471 57.762904 
L 127.539294 57.560425 
L 132.122118 57.627861 
L 136.704941 57.965895 
L 141.287765 58.578192 
L 145.870588 59.47114 
L 150.453412 60.655212 
L 155.036235 62.144162 
L 159.619059 63.956848 
L 163.325701 65.680197 
L 167.257098 67.771628 
L 171.358277 70.281063 
L 173.615173 71.814685 
L 176.422745 73.892467 
L 179.511968 76.415551 
L 182.869902 79.482795 
L 185.869198 82.550039 
L 188.643608 85.715276 
L 191.698824 89.649993 
L 193.226431 91.825316 
L 195.151875 94.819016 
L 196.932623 97.88626 
L 198.533723 100.953504 
L 200.624305 105.55437 
L 201.823858 108.621614 
L 203.351623 113.22248 
L 204.57028 117.823346 
L 205.494653 122.424213 
L 206.134996 127.025079 
L 206.498593 131.625945 
L 206.589226 136.226811 
L 206.407853 140.827677 
L 205.952562 145.428543 
L 205.218511 150.029409 
L 204.197491 154.630276 
L 202.877604 159.231142 
L 201.24276 163.832008 
L 199.336863 168.289959 
L 197.75561 171.500118 
L 196.065995 174.567362 
L 194.189191 177.634606 
L 191.698824 181.270007 
L 189.805563 183.769094 
L 187.116 186.990152 
L 184.060784 190.259351 
L 181.005569 193.184248 
L 177.672161 196.038071 
L 174.895137 198.182261 
L 171.358277 200.638937 
L 168.784706 202.255499 
L 165.72949 203.996716 
L 162.674275 205.562155 
L 158.091451 207.604534 
L 153.508627 209.307068 
L 148.925804 210.692487 
L 144.34298 211.778188 
L 139.760157 212.576725 
L 135.177333 213.097004 
L 130.59451 213.344594 
L 126.011686 213.322117 
L 121.428863 213.029346 
L 121.428863 213.029346 
" style="fill:none;stroke:#06d6a0;stroke-width:8;"/>
    <path clip-path="url(#pf37ea80547)" d="M 315.435059 212.954105 
L 310.852235 212.341808 
L 306.269412 211.44886 
L 301.686588 210.264788 
L 297.103765 208.775838 
L 292.520941 206.963152 
L 288.814299 205.239803 
L 284.882902 203.148372 
L 280.781723 200.638937 
L 278.524827 199.105315 
L 275.717255 197.027533 
L 272.628032 194.504449 
L 269.270098 191.437205 
L 266.270802 188.369961 
L 263.496392 185.204724 
L 260.441176 181.270007 
L 258.913569 179.094684 
L 256.988125 176.100984 
L 255.207377 173.03374 
L 253.606277 169.966496 
L 251.515695 165.36563 
L 250.316142 162.298386 
L 248.788377 157.69752 
L 247.56972 153.096654 
L 246.645347 148.495787 
L 246.005004 143.894921 
L 245.641407 139.294055 
L 245.550774 134.693189 
L 245.732147 130.092323 
L 246.187438 125.491457 
L 246.921489 120.890591 
L 247.942509 116.289724 
L 249.262396 111.688858 
L 250.89724 107.087992 
L 252.803137 102.630041 
L 254.38439 99.419882 
L 256.074005 96.352638 
L 257.950809 93.285394 
L 260.441176 89.649993 
L 262.334437 87.150906 
L 265.024 83.929848 
L 268.079216 80.660649 
L 271.134431 77.735752 
L 274.467839 74.881929 
L 277.244863 72.737739 
L 280.781723 70.281063 
L 283.355294 68.664501 
L 286.41051 66.923284 
L 289.465725 65.357845 
L 294.048549 63.315466 
L 298.631373 61.612932 
L 303.214196 60.227513 
L 307.79702 59.141812 
L 312.379843 58.343275 
L 316.962667 57.822996 
L 321.54549 57.575406 
L 326.128314 57.597883 
L 330.711137 57.890654 
L 335.293961 58.456856 
L 339.876784 59.302481 
L 344.459608 60.437194 
L 349.042431 61.874155 
L 353.625255 63.631496 
L 358.10052 65.680197 
L 361.263294 67.341379 
L 364.31851 69.129706 
L 368.383611 71.814685 
L 370.484171 73.348307 
L 374.278959 76.415551 
L 377.639544 79.482795 
L 380.63855 82.550039 
L 383.330909 85.617283 
L 385.75816 88.684528 
L 387.94581 91.751772 
L 390.287843 95.427358 
L 392.524836 99.419882 
L 394.04071 102.487126 
L 396.012747 107.087992 
L 397.647699 111.688858 
L 398.967424 116.289724 
L 399.988459 120.890591 
L 400.722582 125.491457 
L 401.177862 130.092323 
L 401.359226 134.693189 
L 401.268595 139.294055 
L 400.905031 143.894921 
L 400.264559 148.495787 
L 399.340417 153.096654 
L 398.121781 157.69752 
L 396.594093 162.298386 
L 394.870667 166.591016 
L 393.304458 169.966496 
L 391.703319 173.03374 
L 389.92191 176.100984 
L 387.232627 180.200614 
L 385.70502 182.305774 
L 382.649804 186.10872 
L 379.594588 189.476258 
L 376.539373 192.48164 
L 373.484157 195.180192 
L 370.428941 197.613704 
L 367.373725 199.807624 
L 363.687765 202.172559 
L 359.735686 204.40376 
L 356.680471 205.927148 
L 352.097647 207.91132 
L 347.514824 209.559577 
L 342.932 210.893886 
L 338.349176 211.930911 
L 333.766353 212.682582 
L 329.183529 213.157096 
L 324.600706 213.359575 
L 320.017882 213.292139 
L 315.435059 212.954105 
L 315.435059 212.954105 
" style="fill:none;stroke:#06d6a0;stroke-width:8;"/>
    <path clip-path="url(#pf37ea80547)" d="M 320.017882 154.631325 
L 321.54549 154.843105 
L 323.073098 154.933252 
L 324.600706 154.903244 
L 326.128314 154.752586 
L 326.815724 154.630276 
L 327.655922 154.47829 
L 329.183529 154.074226 
L 330.711137 153.533115 
L 331.692577 153.096654 
L 332.238745 152.841881 
L 333.766353 151.97977 
L 334.394024 151.563031 
L 335.293961 150.918926 
L 336.370412 150.029409 
L 336.821569 149.618564 
L 337.918904 148.495787 
L 338.349176 147.998332 
L 339.166462 146.962165 
L 339.876784 145.915679 
L 340.184823 145.428543 
L 341.008305 143.894921 
L 341.404392 142.989393 
L 341.667242 142.361299 
L 342.176569 140.827677 
L 342.550442 139.294055 
L 342.795597 137.760433 
L 342.916898 136.226811 
L 342.916898 134.693189 
L 342.795597 133.159567 
L 342.550442 131.625945 
L 342.176569 130.092323 
L 341.667242 128.558701 
L 341.404392 127.930607 
L 341.008305 127.025079 
L 340.184823 125.491457 
L 339.876784 125.004321 
L 339.166462 123.957835 
L 338.349176 122.921668 
L 337.918904 122.424213 
L 336.821569 121.301436 
L 336.370412 120.890591 
L 335.293961 120.001074 
L 334.394024 119.356969 
L 333.766353 118.94023 
L 332.238745 118.078119 
L 331.692577 117.823346 
L 330.711137 117.386885 
L 329.183529 116.845774 
L 327.655922 116.44171 
L 326.815724 116.289724 
L 326.128314 116.167414 
L 324.600706 116.016756 
L 323.073098 115.986748 
L 321.54549 116.076895 
L 320.017882 116.288675 
L 320.013047 116.289724 
L 318.490275 116.627114 
L 316.962667 117.098677 
L 315.435059 117.711517 
L 315.204987 117.823346 
L 313.907451 118.487741 
L 312.504101 119.356969 
L 312.379843 119.439598 
L 310.852235 120.614669 
L 310.536869 120.890591 
L 309.324627 122.063382 
L 308.989582 122.424213 
L 307.79702 123.879395 
L 307.737966 123.957835 
L 306.726288 125.491457 
L 306.269412 126.319167 
L 305.901415 127.025079 
L 305.243487 128.558701 
L 304.741804 130.062804 
L 304.732272 130.092323 
L 304.359524 131.625945 
L 304.114531 133.159567 
L 303.993124 134.693189 
L 303.993124 136.226811 
L 304.114531 137.760433 
L 304.359524 139.294055 
L 304.732272 140.827677 
L 304.741804 140.857196 
L 305.243487 142.361299 
L 305.901415 143.894921 
L 306.269412 144.600833 
L 306.726288 145.428543 
L 307.737966 146.962165 
L 307.79702 147.040605 
L 308.989582 148.495787 
L 309.324627 148.856618 
L 310.536869 150.029409 
L 310.852235 150.305331 
L 312.379843 151.480402 
L 312.504101 151.563031 
L 313.907451 152.432259 
L 315.204987 153.096654 
L 315.435059 153.208483 
L 316.962667 153.821323 
L 318.490275 154.292886 
L 320.013047 154.630276 
L 320.017882 154.631325 
" style="fill:none;stroke:#06d6a0;stroke-width:8;"/>
   </g>
  </g>
 </g>
 <defs>
  <clipPath id="pf37ea80547">
   <rect height="194.77" width="389.54" x="31.3" y="38.075"/>
  </clipPath>
 </defs>
</svg>
